# xmcd
#
# Track frame offsets:
#	150
#	18063
#	37934
#	55214
#	70603
#	87531
#	105807
#	122299
#	139183
#	157490
#	175820
#	195653
#
# Disc length: 2840 seconds
#
# Revision: 4294705153
# Processed by: cddbd v1.5.2PL0 Copyright (c) Steve Scherf et al.
# Submitted via: EZCDAudioConverter 8.0.2.1
#
DISCID=930b160c
DTITLE=Hiền Thục - E-mail Tình Yêu
DYEAR=2000
DGENRE=World Pop
TTITLE0=Hiền Thục - Tình yêu chưa dám đâu
TTITLE1=Hiền Thục - Gọi phone cho bé
TTITLE2=Hiền Thục - E-mail Tình Yêu
TTITLE3=Hiền Thục - Anh đã đổi thay
TTITLE4=Hiền Thục - Yêu một người
TTITLE5=Hiền Thục - Chiếc lá đầu tiên
TTITLE6=Hiền Thục - Vẫn chờ anh
TTITLE7=Hiền Thục, Tuấn Thắng - Hát lời tình ca
TTITLE8=Hiền Thục - Vui với thiên nhiên
TTITLE9=Hiền Thục - Câu chuyện tình tôi
TTITLE10=Soundtrack - Gọi phone cho bé
TTITLE11=Soundtrack - E-mail Tình Yêu
EXTD=
EXTT0=
EXTT1=
EXTT2=
EXTT3=
EXTT4=
EXTT5=
EXTT6=
EXTT7=
EXTT8=
EXTT9=
EXTT10=
EXTT11=
PLAYORDER=
